<?xml version="1.0" encoding="UTF-8" standalone="no"?><svg xmlns="http://www.w3.org/2000/svg" xmlns:xlink="http://www.w3.org/1999/xlink" clip-rule="evenodd" stroke-miterlimit="10" viewBox="0 0 1024 768"><desc>SVG generated by Keynote</desc><defs></defs><g transform="matrix(1.00, 0.00, -0.00, -1.00, 0.0, 768.0)"><path d="M 0.0 768.0 L 1024.0 768.0 L 1024.0 0.0 L 0.0 0.0 Z M 0.0 768.0 " fill="#FEFFFF"></path><text xml:space="preserve" font-family="Helvetica-Light,Helvetica" font-size="80.0" fill="#000000" transform="matrix(1.00, 0.00, -0.00, -1.00, 200.8, 401.4)">C</text><text xml:space="preserve" font-family="Helvetica-Light,Helvetica" font-size="80.0" fill="#000000" transform="matrix(1.00, 0.00, -0.00, -1.00, 258.6, 401.4)">o</text><text xml:space="preserve" font-family="Helvetica-Light,Helvetica" font-size="80.0" fill="#000000" transform="matrix(1.00, 0.00, -0.00, -1.00, 303.0, 401.4)">d</text><text xml:space="preserve" font-family="Helvetica-Light,Helvetica" font-size="80.0" fill="#000000" transform="matrix(1.00, 0.00, -0.00, -1.00, 351.9, 401.4)">e</text><text xml:space="preserve" font-family="Helvetica-Light,Helvetica" font-size="80.0" fill="#000000" transform="matrix(1.00, 0.00, -0.00, -1.00, 396.4, 401.4)"> </text><text xml:space="preserve" font-family="Helvetica-Light,Helvetica" font-size="80.0" fill="#000000" transform="matrix(1.00, 0.00, -0.00, -1.00, 418.6, 401.4)">C</text><text xml:space="preserve" font-family="Helvetica-Light,Helvetica" font-size="80.0" fill="#000000" transform="matrix(1.00, 0.00, -0.00, -1.00, 476.4, 401.4)">h</text><text xml:space="preserve" font-family="Helvetica-Light,Helvetica" font-size="80.0" fill="#000000" transform="matrix(1.00, 0.00, -0.00, -1.00, 520.9, 401.4)">a</text><text xml:space="preserve" font-family="Helvetica-Light,Helvetica" font-size="80.0" fill="#000000" transform="matrix(1.00, 0.00, -0.00, -1.00, 565.4, 401.4)">l</text><text xml:space="preserve" font-family="Helvetica-Light,Helvetica" font-size="80.0" fill="#000000" transform="matrix(1.00, 0.00, -0.00, -1.00, 583.1, 401.4)">l</text><text xml:space="preserve" font-family="Helvetica-Light,Helvetica" font-size="80.0" fill="#000000" transform="matrix(1.00, 0.00, -0.00, -1.00, 600.9, 401.4)">e</text><text xml:space="preserve" font-family="Helvetica-Light,Helvetica" font-size="80.0" fill="#000000" transform="matrix(1.00, 0.00, -0.00, -1.00, 645.4, 401.4)">n</text><text xml:space="preserve" font-family="Helvetica-Light,Helvetica" font-size="80.0" fill="#000000" transform="matrix(1.00, 0.00, -0.00, -1.00, 689.8, 401.4)">g</text><text xml:space="preserve" font-family="Helvetica-Light,Helvetica" font-size="80.0" fill="#000000" transform="matrix(1.00, 0.00, -0.00, -1.00, 738.7, 401.4)">e</text><text xml:space="preserve" font-family="Helvetica-Light,Helvetica" font-size="80.0" fill="#000000" transform="matrix(1.00, 0.00, -0.00, -1.00, 783.2, 401.4)">s</text><text xml:space="preserve" font-family="Helvetica-Light,Helvetica" font-size="22.7" fill="#000000" transform="matrix(1.00, 0.00, -0.00, -1.00, 444.6, 347.2)">L</text><text xml:space="preserve" font-family="Helvetica-Light,Helvetica" font-size="22.7" fill="#000000" transform="matrix(1.00, 0.00, -0.00, -1.00, 457.3, 347.2)">a</text><text xml:space="preserve" font-family="Helvetica-Light,Helvetica" font-size="22.7" fill="#000000" transform="matrix(1.00, 0.00, -0.00, -1.00, 469.9, 347.2)">u</text><text xml:space="preserve" font-family="Helvetica-Light,Helvetica" font-size="22.7" fill="#000000" transform="matrix(1.00, 0.00, -0.00, -1.00, 482.5, 347.2)">r</text><text xml:space="preserve" font-family="Helvetica-Light,Helvetica" font-size="22.7" fill="#000000" transform="matrix(1.00, 0.00, -0.00, -1.00, 490.1, 347.2)">a</text><text xml:space="preserve" font-family="Helvetica-Light,Helvetica" font-size="22.7" fill="#000000" transform="matrix(1.00, 0.00, -0.00, -1.00, 502.7, 347.2)"> </text><text xml:space="preserve" font-family="Helvetica-Light,Helvetica" font-size="22.7" fill="#000000" transform="matrix(1.00, 0.00, -0.00, -1.00, 509.1, 347.2)">&amp;</text><text xml:space="preserve" font-family="Helvetica-Light,Helvetica" font-size="22.7" fill="#000000" transform="matrix(1.00, 0.00, -0.00, -1.00, 524.2, 347.2)"> </text><text xml:space="preserve" font-family="Helvetica-Light,Helvetica" font-size="22.7" fill="#000000" transform="matrix(1.00, 0.00, -0.00, -1.00, 530.5, 347.2)">V</text><text xml:space="preserve" font-family="Helvetica-Light,Helvetica" font-size="22.7" fill="#000000" transform="matrix(1.00, 0.00, -0.00, -1.00, 544.0, 347.2)">i</text><text xml:space="preserve" font-family="Helvetica-Light,Helvetica" font-size="22.7" fill="#000000" transform="matrix(1.00, 0.00, -0.00, -1.00, 549.0, 347.2)">o</text><text xml:space="preserve" font-family="Helvetica-Light,Helvetica" font-size="22.7" fill="#000000" transform="matrix(1.00, 0.00, -0.00, -1.00, 561.7, 347.2)">l</text><text xml:space="preserve" font-family="Helvetica-Light,Helvetica" font-size="22.7" fill="#000000" transform="matrix(1.00, 0.00, -0.00, -1.00, 566.7, 347.2)">a</text><text xml:space="preserve" font-family="Helvetica-Light,Helvetica" font-size="22.7" fill="#000000" transform="matrix(1.00, 0.00, -0.00, -1.00, 579.4, 347.2)"> </text><text xml:space="preserve" font-family="Helvetica-Light,Helvetica" font-size="22.7" fill="#000000" transform="matrix(1.00, 0.00, -0.00, -1.00, 426.1, 295.2)">2</text><text xml:space="preserve" font-family="Helvetica-Light,Helvetica" font-size="22.7" fill="#000000" transform="matrix(1.00, 0.00, -0.00, -1.00, 438.8, 295.2)">7</text><text xml:space="preserve" font-family="Helvetica-Light,Helvetica" font-size="22.7" fill="#000000" transform="matrix(1.00, 0.00, -0.00, -1.00, 451.4, 295.2)"> </text><text xml:space="preserve" font-family="Helvetica-Light,Helvetica" font-size="22.7" fill="#000000" transform="matrix(1.00, 0.00, -0.00, -1.00, 457.7, 295.2)">O</text><text xml:space="preserve" font-family="Helvetica-Light,Helvetica" font-size="22.7" fill="#000000" transform="matrix(1.00, 0.00, -0.00, -1.00, 475.4, 295.2)">c</text><text xml:space="preserve" font-family="Helvetica-Light,Helvetica" font-size="22.7" fill="#000000" transform="matrix(1.00, 0.00, -0.00, -1.00, 488.0, 295.2)">t</text><text xml:space="preserve" font-family="Helvetica-Light,Helvetica" font-size="22.7" fill="#000000" transform="matrix(1.00, 0.00, -0.00, -1.00, 494.3, 295.2)">o</text><text xml:space="preserve" font-family="Helvetica-Light,Helvetica" font-size="22.7" fill="#000000" transform="matrix(1.00, 0.00, -0.00, -1.00, 507.0, 295.2)">b</text><text xml:space="preserve" font-family="Helvetica-Light,Helvetica" font-size="22.7" fill="#000000" transform="matrix(1.00, 0.00, -0.00, -1.00, 520.8, 295.2)">e</text><text xml:space="preserve" font-family="Helvetica-Light,Helvetica" font-size="22.7" fill="#000000" transform="matrix(1.00, 0.00, -0.00, -1.00, 533.5, 295.2)">r</text><text xml:space="preserve" font-family="Helvetica-Light,Helvetica" font-size="22.7" fill="#000000" transform="matrix(1.00, 0.00, -0.00, -1.00, 541.0, 295.2)"> </text><text xml:space="preserve" font-family="Helvetica-Light,Helvetica" font-size="22.7" fill="#000000" transform="matrix(1.00, 0.00, -0.00, -1.00, 547.4, 295.2)">2</text><text xml:space="preserve" font-family="Helvetica-Light,Helvetica" font-size="22.7" fill="#000000" transform="matrix(1.00, 0.00, -0.00, -1.00, 560.0, 295.2)">0</text><text xml:space="preserve" font-family="Helvetica-Light,Helvetica" font-size="22.7" fill="#000000" transform="matrix(1.00, 0.00, -0.00, -1.00, 572.6, 295.2)">1</text><text xml:space="preserve" font-family="Helvetica-Light,Helvetica" font-size="22.7" fill="#000000" transform="matrix(1.00, 0.00, -0.00, -1.00, 585.2, 295.2)">5</text></g></svg>