<?xml version="1.0" encoding="UTF-8" standalone="no"?><svg xmlns="http://www.w3.org/2000/svg" xmlns:xlink="http://www.w3.org/1999/xlink" clip-rule="evenodd" stroke-miterlimit="10" viewBox="0 0 1024 768"><desc>SVG generated by Keynote</desc><defs></defs><g transform="matrix(1.00, 0.00, -0.00, -1.00, 0.0, 768.0)"><path d="M 0.0 768.0 L 1024.0 768.0 L 1024.0 0.0 L 0.0 0.0 Z M 0.0 768.0 " fill="#FEFFFF"></path><path d="M -0.2 0.0 L 722.8 0.0 " fill="none" stroke="#000000" stroke-width="1.00" transform="matrix(1.00, 0.00, 0.00, -1.00, 151.2, 601.5)"></path><text xml:space="preserve" font-family="OpenSans-Extrabold,Open Sans" font-weight="bold" font-size="18.0" fill="#000000" transform="matrix(1.00, 0.00, -0.00, -1.00, 150.5, 630.4)">M</text><text xml:space="preserve" font-family="OpenSans-Extrabold,Open Sans" font-weight="bold" font-size="18.0" fill="#000000" transform="matrix(1.00, 0.00, -0.00, -1.00, 167.2, 630.4)">Y</text><text xml:space="preserve" font-family="OpenSans-Extrabold,Open Sans" font-weight="bold" font-size="18.0" fill="#000000" transform="matrix(1.00, 0.00, -0.00, -1.00, 178.4, 630.4)"> </text><text xml:space="preserve" font-family="OpenSans-Extrabold,Open Sans" font-weight="bold" font-size="18.0" fill="#000000" transform="matrix(1.00, 0.00, -0.00, -1.00, 182.4, 630.4)">S</text><text xml:space="preserve" font-family="OpenSans-Extrabold,Open Sans" font-weight="bold" font-size="18.0" fill="#000000" transform="matrix(1.00, 0.00, -0.00, -1.00, 192.0, 630.4)">T</text><text xml:space="preserve" font-family="OpenSans-Extrabold,Open Sans" font-weight="bold" font-size="18.0" fill="#000000" transform="matrix(1.00, 0.00, -0.00, -1.00, 201.6, 630.4)">O</text><text xml:space="preserve" font-family="OpenSans-Extrabold,Open Sans" font-weight="bold" font-size="18.0" fill="#000000" transform="matrix(1.00, 0.00, -0.00, -1.00, 215.2, 630.4)">R</text><text xml:space="preserve" font-family="OpenSans-Extrabold,Open Sans" font-weight="bold" font-size="18.0" fill="#000000" transform="matrix(1.00, 0.00, -0.00, -1.00, 226.7, 630.4)">Y</text><text xml:space="preserve" font-family="OpenSans-Bold,Open Sans" font-weight="bold" font-size="34.0" fill="#000000" transform="matrix(1.00, 0.00, -0.00, -1.00, 150.5, 552.0)">•</text><text xml:space="preserve" font-family="OpenSans-Bold,Open Sans" font-weight="bold" font-size="34.0" fill="#000000" transform="matrix(1.00, 0.00, -0.00, -1.00, 163.3, 552.0)"> </text><text xml:space="preserve" font-family="OpenSans-Bold,Open Sans" font-weight="bold" font-size="34.0" fill="#000000" transform="matrix(1.00, 0.00, -0.00, -1.00, 172.1, 552.0)">B</text><text xml:space="preserve" font-family="OpenSans-Bold,Open Sans" font-weight="bold" font-size="34.0" fill="#000000" transform="matrix(1.00, 0.00, -0.00, -1.00, 194.9, 552.0)">e</text><text xml:space="preserve" font-family="OpenSans-Bold,Open Sans" font-weight="bold" font-size="34.0" fill="#000000" transform="matrix(1.00, 0.00, -0.00, -1.00, 215.0, 552.0)">f</text><text xml:space="preserve" font-family="OpenSans-Bold,Open Sans" font-weight="bold" font-size="34.0" fill="#000000" transform="matrix(1.00, 0.00, -0.00, -1.00, 228.2, 552.0)">o</text><text xml:space="preserve" font-family="OpenSans-Bold,Open Sans" font-weight="bold" font-size="34.0" fill="#000000" transform="matrix(1.00, 0.00, -0.00, -1.00, 249.3, 552.0)">r</text><text xml:space="preserve" font-family="OpenSans-Bold,Open Sans" font-weight="bold" font-size="34.0" fill="#000000" transform="matrix(1.00, 0.00, -0.00, -1.00, 264.0, 552.0)">e</text><text xml:space="preserve" font-family="OpenSans-Bold,Open Sans" font-weight="bold" font-size="34.0" fill="#000000" transform="matrix(1.00, 0.00, -0.00, -1.00, 284.1, 552.0)"> </text><text xml:space="preserve" font-family="OpenSans-Bold,Open Sans" font-weight="bold" font-size="34.0" fill="#000000" transform="matrix(1.00, 0.00, -0.00, -1.00, 292.9, 552.0)">R</text><text xml:space="preserve" font-family="OpenSans-Bold,Open Sans" font-weight="bold" font-size="34.0" fill="#000000" transform="matrix(1.00, 0.00, -0.00, -1.00, 315.4, 552.0)">a</text><text xml:space="preserve" font-family="OpenSans-Bold,Open Sans" font-weight="bold" font-size="34.0" fill="#000000" transform="matrix(1.00, 0.00, -0.00, -1.00, 335.9, 552.0)">i</text><text xml:space="preserve" font-family="OpenSans-Bold,Open Sans" font-weight="bold" font-size="34.0" fill="#000000" transform="matrix(1.00, 0.00, -0.00, -1.00, 346.3, 552.0)">l</text><text xml:space="preserve" font-family="OpenSans-Bold,Open Sans" font-weight="bold" font-size="34.0" fill="#000000" transform="matrix(1.00, 0.00, -0.00, -1.00, 356.7, 552.0)">s</text><text xml:space="preserve" font-family="OpenSans-Bold,Open Sans" font-weight="bold" font-size="34.0" fill="#000000" transform="matrix(1.00, 0.00, -0.00, -1.00, 373.6, 552.0)"> </text><text xml:space="preserve" font-family="OpenSans-Bold,Open Sans" font-weight="bold" font-size="34.0" fill="#000000" transform="matrix(1.00, 0.00, -0.00, -1.00, 382.4, 552.0)">G</text><text xml:space="preserve" font-family="OpenSans-Bold,Open Sans" font-weight="bold" font-size="34.0" fill="#000000" transform="matrix(1.00, 0.00, -0.00, -1.00, 407.0, 552.0)">i</text><text xml:space="preserve" font-family="OpenSans-Bold,Open Sans" font-weight="bold" font-size="34.0" fill="#000000" transform="matrix(1.00, 0.00, -0.00, -1.00, 417.4, 552.0)">r</text><text xml:space="preserve" font-family="OpenSans-Bold,Open Sans" font-weight="bold" font-size="34.0" fill="#000000" transform="matrix(1.00, 0.00, -0.00, -1.00, 432.9, 552.0)">l</text><text xml:space="preserve" font-family="OpenSans-Bold,Open Sans" font-weight="bold" font-size="34.0" fill="#000000" transform="matrix(1.00, 0.00, -0.00, -1.00, 443.2, 552.0)">s</text><text xml:space="preserve" font-family="OpenSans-Bold,Open Sans" font-weight="bold" font-size="34.0" fill="#000000" transform="matrix(1.00, 0.00, -0.00, -1.00, 460.1, 552.0)"> </text><text xml:space="preserve" font-family="OpenSans-Bold,Open Sans" font-weight="bold" font-size="34.0" fill="#000000" transform="matrix(1.00, 0.00, -0.00, -1.00, 469.0, 552.0)">S</text><text xml:space="preserve" font-family="OpenSans-Bold,Open Sans" font-weight="bold" font-size="34.0" fill="#000000" transform="matrix(1.00, 0.00, -0.00, -1.00, 487.7, 552.0)">u</text><text xml:space="preserve" font-family="OpenSans-Bold,Open Sans" font-weight="bold" font-size="34.0" fill="#000000" transform="matrix(1.00, 0.00, -0.00, -1.00, 510.0, 552.0)">m</text><text xml:space="preserve" font-family="OpenSans-Bold,Open Sans" font-weight="bold" font-size="34.0" fill="#000000" transform="matrix(1.00, 0.00, -0.00, -1.00, 543.4, 552.0)">m</text><text xml:space="preserve" font-family="OpenSans-Bold,Open Sans" font-weight="bold" font-size="34.0" fill="#000000" transform="matrix(1.00, 0.00, -0.00, -1.00, 576.8, 552.0)">e</text><text xml:space="preserve" font-family="OpenSans-Bold,Open Sans" font-weight="bold" font-size="34.0" fill="#000000" transform="matrix(1.00, 0.00, -0.00, -1.00, 596.9, 552.0)">r</text><text xml:space="preserve" font-family="OpenSans-Bold,Open Sans" font-weight="bold" font-size="34.0" fill="#000000" transform="matrix(1.00, 0.00, -0.00, -1.00, 612.3, 552.0)"> </text><text xml:space="preserve" font-family="OpenSans-Bold,Open Sans" font-weight="bold" font-size="34.0" fill="#000000" transform="matrix(1.00, 0.00, -0.00, -1.00, 621.2, 552.0)">o</text><text xml:space="preserve" font-family="OpenSans-Bold,Open Sans" font-weight="bold" font-size="34.0" fill="#000000" transform="matrix(1.00, 0.00, -0.00, -1.00, 642.2, 552.0)">f</text><text xml:space="preserve" font-family="OpenSans-Bold,Open Sans" font-weight="bold" font-size="34.0" fill="#000000" transform="matrix(1.00, 0.00, -0.00, -1.00, 655.4, 552.0)"> </text><text xml:space="preserve" font-family="OpenSans-Bold,Open Sans" font-weight="bold" font-size="34.0" fill="#000000" transform="matrix(1.00, 0.00, -0.00, -1.00, 664.2, 552.0)">C</text><text xml:space="preserve" font-family="OpenSans-Bold,Open Sans" font-weight="bold" font-size="34.0" fill="#000000" transform="matrix(1.00, 0.00, -0.00, -1.00, 685.9, 552.0)">o</text><text xml:space="preserve" font-family="OpenSans-Bold,Open Sans" font-weight="bold" font-size="34.0" fill="#000000" transform="matrix(1.00, 0.00, -0.00, -1.00, 706.9, 552.0)">d</text><text xml:space="preserve" font-family="OpenSans-Bold,Open Sans" font-weight="bold" font-size="34.0" fill="#000000" transform="matrix(1.00, 0.00, -0.00, -1.00, 728.4, 552.0)">e</text><text xml:space="preserve" font-family="OpenSans-Bold,Open Sans" font-weight="bold" font-size="34.0" fill="#000000" transform="matrix(1.00, 0.00, -0.00, -1.00, 748.5, 552.0)"> </text><text xml:space="preserve" font-family="OpenSans-Bold,Open Sans" font-weight="bold" font-size="34.0" fill="#000000" transform="matrix(1.00, 0.00, -0.00, -1.00, 163.2, 515.2)">(</text><text xml:space="preserve" font-family="OpenSans-Bold,Open Sans" font-weight="bold" font-size="34.0" fill="#000000" transform="matrix(1.00, 0.00, -0.00, -1.00, 174.8, 515.2)">R</text><text xml:space="preserve" font-family="OpenSans-Bold,Open Sans" font-weight="bold" font-size="34.0" fill="#000000" transform="matrix(1.00, 0.00, -0.00, -1.00, 197.2, 515.2)">G</text><text xml:space="preserve" font-family="OpenSans-Bold,Open Sans" font-weight="bold" font-size="34.0" fill="#000000" transform="matrix(1.00, 0.00, -0.00, -1.00, 221.8, 515.2)">S</text><text xml:space="preserve" font-family="OpenSans-Bold,Open Sans" font-weight="bold" font-size="34.0" fill="#000000" transform="matrix(1.00, 0.00, -0.00, -1.00, 240.5, 515.2)">o</text><text xml:space="preserve" font-family="OpenSans-Bold,Open Sans" font-weight="bold" font-size="34.0" fill="#000000" transform="matrix(1.00, 0.00, -0.00, -1.00, 261.6, 515.2)">C</text><text xml:space="preserve" font-family="OpenSans-Bold,Open Sans" font-weight="bold" font-size="34.0" fill="#000000" transform="matrix(1.00, 0.00, -0.00, -1.00, 283.3, 515.2)">)</text><text xml:space="preserve" font-family="OpenSans-Bold,Open Sans" font-weight="bold" font-size="34.0" fill="#000000" transform="matrix(1.00, 0.00, -0.00, -1.00, 294.8, 515.2)">:</text><text xml:space="preserve" font-family="OpenSans-Bold,Open Sans" font-weight="bold" font-size="34.0" fill="#000000" transform="matrix(1.00, 0.00, -0.00, -1.00, 304.5, 515.2)"> </text><text xml:space="preserve" font-family="OpenSans-Bold,Open Sans" font-weight="bold" font-size="34.0" fill="#000000" transform="matrix(1.00, 0.00, -0.00, -1.00, 175.5, 454.4)">•</text><text xml:space="preserve" font-family="OpenSans-Bold,Open Sans" font-weight="bold" font-size="34.0" fill="#000000" transform="matrix(1.00, 0.00, -0.00, -1.00, 188.3, 454.4)"> </text><text xml:space="preserve" font-family="OpenSans-Bold,Open Sans" font-weight="bold" font-size="34.0" fill="#000000" transform="matrix(1.00, 0.00, -0.00, -1.00, 197.1, 454.4)">N</text><text xml:space="preserve" font-family="OpenSans-Bold,Open Sans" font-weight="bold" font-size="34.0" fill="#000000" transform="matrix(1.00, 0.00, -0.00, -1.00, 224.8, 454.4)">o</text><text xml:space="preserve" font-family="OpenSans-Bold,Open Sans" font-weight="bold" font-size="34.0" fill="#000000" transform="matrix(1.00, 0.00, -0.00, -1.00, 245.8, 454.4)">n</text><text xml:space="preserve" font-family="OpenSans-Bold,Open Sans" font-weight="bold" font-size="34.0" fill="#000000" transform="matrix(1.00, 0.00, -0.00, -1.00, 268.2, 454.4)">-</text><text xml:space="preserve" font-family="OpenSans-Bold,Open Sans" font-weight="bold" font-size="34.0" fill="#000000" transform="matrix(1.00, 0.00, -0.00, -1.00, 279.1, 454.4)">p</text><text xml:space="preserve" font-family="OpenSans-Bold,Open Sans" font-weight="bold" font-size="34.0" fill="#000000" transform="matrix(1.00, 0.00, -0.00, -1.00, 300.6, 454.4)">r</text><text xml:space="preserve" font-family="OpenSans-Bold,Open Sans" font-weight="bold" font-size="34.0" fill="#000000" transform="matrix(1.00, 0.00, -0.00, -1.00, 315.4, 454.4)">o</text><text xml:space="preserve" font-family="OpenSans-Bold,Open Sans" font-weight="bold" font-size="34.0" fill="#000000" transform="matrix(1.00, 0.00, -0.00, -1.00, 336.4, 454.4)">ﬁ</text><text xml:space="preserve" font-family="OpenSans-Bold,Open Sans" font-weight="bold" font-size="34.0" fill="#000000" transform="matrix(1.00, 0.00, -0.00, -1.00, 359.9, 454.4)">t</text><text xml:space="preserve" font-family="OpenSans-Bold,Open Sans" font-weight="bold" font-size="34.0" fill="#000000" transform="matrix(1.00, 0.00, -0.00, -1.00, 374.7, 454.4)"> </text><text xml:space="preserve" font-family="OpenSans-Bold,Open Sans" font-weight="bold" font-size="34.0" fill="#000000" transform="matrix(1.00, 0.00, -0.00, -1.00, 383.5, 454.4)">p</text><text xml:space="preserve" font-family="OpenSans-Bold,Open Sans" font-weight="bold" font-size="34.0" fill="#000000" transform="matrix(1.00, 0.00, -0.00, -1.00, 405.0, 454.4)">r</text><text xml:space="preserve" font-family="OpenSans-Bold,Open Sans" font-weight="bold" font-size="34.0" fill="#000000" transform="matrix(1.00, 0.00, -0.00, -1.00, 419.8, 454.4)">o</text><text xml:space="preserve" font-family="OpenSans-Bold,Open Sans" font-weight="bold" font-size="34.0" fill="#000000" transform="matrix(1.00, 0.00, -0.00, -1.00, 440.9, 454.4)">g</text><text xml:space="preserve" font-family="OpenSans-Bold,Open Sans" font-weight="bold" font-size="34.0" fill="#000000" transform="matrix(1.00, 0.00, -0.00, -1.00, 460.1, 454.4)">r</text><text xml:space="preserve" font-family="OpenSans-Bold,Open Sans" font-weight="bold" font-size="34.0" fill="#000000" transform="matrix(1.00, 0.00, -0.00, -1.00, 474.8, 454.4)">a</text><text xml:space="preserve" font-family="OpenSans-Bold,Open Sans" font-weight="bold" font-size="34.0" fill="#000000" transform="matrix(1.00, 0.00, -0.00, -1.00, 495.4, 454.4)">m</text><text xml:space="preserve" font-family="OpenSans-Bold,Open Sans" font-weight="bold" font-size="34.0" fill="#000000" transform="matrix(1.00, 0.00, -0.00, -1.00, 528.7, 454.4)"> </text><text xml:space="preserve" font-family="OpenSans-Bold,Open Sans" font-weight="bold" font-size="34.0" fill="#000000" transform="matrix(1.00, 0.00, -0.00, -1.00, 537.6, 454.4)">m</text><text xml:space="preserve" font-family="OpenSans-Bold,Open Sans" font-weight="bold" font-size="34.0" fill="#000000" transform="matrix(1.00, 0.00, -0.00, -1.00, 570.9, 454.4)">a</text><text xml:space="preserve" font-family="OpenSans-Bold,Open Sans" font-weight="bold" font-size="34.0" fill="#000000" transform="matrix(1.00, 0.00, -0.00, -1.00, 591.5, 454.4)">n</text><text xml:space="preserve" font-family="OpenSans-Bold,Open Sans" font-weight="bold" font-size="34.0" fill="#000000" transform="matrix(1.00, 0.00, -0.00, -1.00, 613.8, 454.4)">a</text><text xml:space="preserve" font-family="OpenSans-Bold,Open Sans" font-weight="bold" font-size="34.0" fill="#000000" transform="matrix(1.00, 0.00, -0.00, -1.00, 634.4, 454.4)">g</text><text xml:space="preserve" font-family="OpenSans-Bold,Open Sans" font-weight="bold" font-size="34.0" fill="#000000" transform="matrix(1.00, 0.00, -0.00, -1.00, 653.6, 454.4)">e</text><text xml:space="preserve" font-family="OpenSans-Bold,Open Sans" font-weight="bold" font-size="34.0" fill="#000000" transform="matrix(1.00, 0.00, -0.00, -1.00, 673.7, 454.4)">r</text><text xml:space="preserve" font-family="OpenSans-Bold,Open Sans" font-weight="bold" font-size="34.0" fill="#000000" transform="matrix(1.00, 0.00, -0.00, -1.00, 689.1, 454.4)"> </text><text xml:space="preserve" font-family="OpenSans-Bold,Open Sans" font-weight="bold" font-size="34.0" fill="#000000" transform="matrix(1.00, 0.00, -0.00, -1.00, 175.5, 393.6)">•</text><text xml:space="preserve" font-family="OpenSans-Bold,Open Sans" font-weight="bold" font-size="34.0" fill="#000000" transform="matrix(1.00, 0.00, -0.00, -1.00, 188.3, 393.6)"> </text><text xml:space="preserve" font-family="OpenSans-Bold,Open Sans" font-weight="bold" font-size="34.0" fill="#000000" transform="matrix(1.00, 0.00, -0.00, -1.00, 197.1, 393.6)">C</text><text xml:space="preserve" font-family="OpenSans-Bold,Open Sans" font-weight="bold" font-size="34.0" fill="#000000" transform="matrix(1.00, 0.00, -0.00, -1.00, 218.8, 393.6)">o</text><text xml:space="preserve" font-family="OpenSans-Bold,Open Sans" font-weight="bold" font-size="34.0" fill="#000000" transform="matrix(1.00, 0.00, -0.00, -1.00, 239.8, 393.6)">m</text><text xml:space="preserve" font-family="OpenSans-Bold,Open Sans" font-weight="bold" font-size="34.0" fill="#000000" transform="matrix(1.00, 0.00, -0.00, -1.00, 273.2, 393.6)">p</text><text xml:space="preserve" font-family="OpenSans-Bold,Open Sans" font-weight="bold" font-size="34.0" fill="#000000" transform="matrix(1.00, 0.00, -0.00, -1.00, 294.7, 393.6)">u</text><text xml:space="preserve" font-family="OpenSans-Bold,Open Sans" font-weight="bold" font-size="34.0" fill="#000000" transform="matrix(1.00, 0.00, -0.00, -1.00, 317.1, 393.6)">t</text><text xml:space="preserve" font-family="OpenSans-Bold,Open Sans" font-weight="bold" font-size="34.0" fill="#000000" transform="matrix(1.00, 0.00, -0.00, -1.00, 331.8, 393.6)">e</text><text xml:space="preserve" font-family="OpenSans-Bold,Open Sans" font-weight="bold" font-size="34.0" fill="#000000" transform="matrix(1.00, 0.00, -0.00, -1.00, 351.9, 393.6)">r</text><text xml:space="preserve" font-family="OpenSans-Bold,Open Sans" font-weight="bold" font-size="34.0" fill="#000000" transform="matrix(1.00, 0.00, -0.00, -1.00, 367.4, 393.6)"> </text><text xml:space="preserve" font-family="OpenSans-Bold,Open Sans" font-weight="bold" font-size="34.0" fill="#000000" transform="matrix(1.00, 0.00, -0.00, -1.00, 376.2, 393.6)">S</text><text xml:space="preserve" font-family="OpenSans-Bold,Open Sans" font-weight="bold" font-size="34.0" fill="#000000" transform="matrix(1.00, 0.00, -0.00, -1.00, 394.9, 393.6)">c</text><text xml:space="preserve" font-family="OpenSans-Bold,Open Sans" font-weight="bold" font-size="34.0" fill="#000000" transform="matrix(1.00, 0.00, -0.00, -1.00, 412.4, 393.6)">i</text><text xml:space="preserve" font-family="OpenSans-Bold,Open Sans" font-weight="bold" font-size="34.0" fill="#000000" transform="matrix(1.00, 0.00, -0.00, -1.00, 422.8, 393.6)">e</text><text xml:space="preserve" font-family="OpenSans-Bold,Open Sans" font-weight="bold" font-size="34.0" fill="#000000" transform="matrix(1.00, 0.00, -0.00, -1.00, 442.9, 393.6)">n</text><text xml:space="preserve" font-family="OpenSans-Bold,Open Sans" font-weight="bold" font-size="34.0" fill="#000000" transform="matrix(1.00, 0.00, -0.00, -1.00, 465.2, 393.6)">c</text><text xml:space="preserve" font-family="OpenSans-Bold,Open Sans" font-weight="bold" font-size="34.0" fill="#000000" transform="matrix(1.00, 0.00, -0.00, -1.00, 482.7, 393.6)">e</text><text xml:space="preserve" font-family="OpenSans-Bold,Open Sans" font-weight="bold" font-size="34.0" fill="#000000" transform="matrix(1.00, 0.00, -0.00, -1.00, 502.8, 393.6)"> </text><text xml:space="preserve" font-family="OpenSans-Bold,Open Sans" font-weight="bold" font-size="34.0" fill="#000000" transform="matrix(1.00, 0.00, -0.00, -1.00, 511.6, 393.6)">c</text><text xml:space="preserve" font-family="OpenSans-Bold,Open Sans" font-weight="bold" font-size="34.0" fill="#000000" transform="matrix(1.00, 0.00, -0.00, -1.00, 529.1, 393.6)">l</text><text xml:space="preserve" font-family="OpenSans-Bold,Open Sans" font-weight="bold" font-size="34.0" fill="#000000" transform="matrix(1.00, 0.00, -0.00, -1.00, 539.5, 393.6)">a</text><text xml:space="preserve" font-family="OpenSans-Bold,Open Sans" font-weight="bold" font-size="34.0" fill="#000000" transform="matrix(1.00, 0.00, -0.00, -1.00, 560.0, 393.6)">s</text><text xml:space="preserve" font-family="OpenSans-Bold,Open Sans" font-weight="bold" font-size="34.0" fill="#000000" transform="matrix(1.00, 0.00, -0.00, -1.00, 576.9, 393.6)">s</text><text xml:space="preserve" font-family="OpenSans-Bold,Open Sans" font-weight="bold" font-size="34.0" fill="#000000" transform="matrix(1.00, 0.00, -0.00, -1.00, 593.8, 393.6)">e</text><text xml:space="preserve" font-family="OpenSans-Bold,Open Sans" font-weight="bold" font-size="34.0" fill="#000000" transform="matrix(1.00, 0.00, -0.00, -1.00, 613.9, 393.6)">s</text><text xml:space="preserve" font-family="OpenSans-Bold,Open Sans" font-weight="bold" font-size="34.0" fill="#000000" transform="matrix(1.00, 0.00, -0.00, -1.00, 630.8, 393.6)"> </text><text xml:space="preserve" font-family="OpenSans-Bold,Open Sans" font-weight="bold" font-size="34.0" fill="#000000" transform="matrix(1.00, 0.00, -0.00, -1.00, 639.6, 393.6)">(</text><text xml:space="preserve" font-family="OpenSans-Bold,Open Sans" font-weight="bold" font-size="34.0" fill="#000000" transform="matrix(1.00, 0.00, -0.00, -1.00, 651.2, 393.6)">h</text><text xml:space="preserve" font-family="OpenSans-Bold,Open Sans" font-weight="bold" font-size="34.0" fill="#000000" transform="matrix(1.00, 0.00, -0.00, -1.00, 673.5, 393.6)">t</text><text xml:space="preserve" font-family="OpenSans-Bold,Open Sans" font-weight="bold" font-size="34.0" fill="#000000" transform="matrix(1.00, 0.00, -0.00, -1.00, 688.3, 393.6)">m</text><text xml:space="preserve" font-family="OpenSans-Bold,Open Sans" font-weight="bold" font-size="34.0" fill="#000000" transform="matrix(1.00, 0.00, -0.00, -1.00, 721.6, 393.6)">l</text><text xml:space="preserve" font-family="OpenSans-Bold,Open Sans" font-weight="bold" font-size="34.0" fill="#000000" transform="matrix(1.00, 0.00, -0.00, -1.00, 732.0, 393.6)">,</text><text xml:space="preserve" font-family="OpenSans-Bold,Open Sans" font-weight="bold" font-size="34.0" fill="#000000" transform="matrix(1.00, 0.00, -0.00, -1.00, 741.9, 393.6)"> </text><text xml:space="preserve" font-family="OpenSans-Bold,Open Sans" font-weight="bold" font-size="34.0" fill="#000000" transform="matrix(1.00, 0.00, -0.00, -1.00, 188.2, 356.8)">c</text><text xml:space="preserve" font-family="OpenSans-Bold,Open Sans" font-weight="bold" font-size="34.0" fill="#000000" transform="matrix(1.00, 0.00, -0.00, -1.00, 205.7, 356.8)">o</text><text xml:space="preserve" font-family="OpenSans-Bold,Open Sans" font-weight="bold" font-size="34.0" fill="#000000" transform="matrix(1.00, 0.00, -0.00, -1.00, 226.8, 356.8)">m</text><text xml:space="preserve" font-family="OpenSans-Bold,Open Sans" font-weight="bold" font-size="34.0" fill="#000000" transform="matrix(1.00, 0.00, -0.00, -1.00, 260.2, 356.8)">p</text><text xml:space="preserve" font-family="OpenSans-Bold,Open Sans" font-weight="bold" font-size="34.0" fill="#000000" transform="matrix(1.00, 0.00, -0.00, -1.00, 281.7, 356.8)">u</text><text xml:space="preserve" font-family="OpenSans-Bold,Open Sans" font-weight="bold" font-size="34.0" fill="#000000" transform="matrix(1.00, 0.00, -0.00, -1.00, 304.1, 356.8)">t</text><text xml:space="preserve" font-family="OpenSans-Bold,Open Sans" font-weight="bold" font-size="34.0" fill="#000000" transform="matrix(1.00, 0.00, -0.00, -1.00, 318.8, 356.8)">e</text><text xml:space="preserve" font-family="OpenSans-Bold,Open Sans" font-weight="bold" font-size="34.0" fill="#000000" transform="matrix(1.00, 0.00, -0.00, -1.00, 338.9, 356.8)">r</text><text xml:space="preserve" font-family="OpenSans-Bold,Open Sans" font-weight="bold" font-size="34.0" fill="#000000" transform="matrix(1.00, 0.00, -0.00, -1.00, 354.4, 356.8)"> </text><text xml:space="preserve" font-family="OpenSans-Bold,Open Sans" font-weight="bold" font-size="34.0" fill="#000000" transform="matrix(1.00, 0.00, -0.00, -1.00, 363.2, 356.8)">l</text><text xml:space="preserve" font-family="OpenSans-Bold,Open Sans" font-weight="bold" font-size="34.0" fill="#000000" transform="matrix(1.00, 0.00, -0.00, -1.00, 373.6, 356.8)">o</text><text xml:space="preserve" font-family="OpenSans-Bold,Open Sans" font-weight="bold" font-size="34.0" fill="#000000" transform="matrix(1.00, 0.00, -0.00, -1.00, 394.6, 356.8)">g</text><text xml:space="preserve" font-family="OpenSans-Bold,Open Sans" font-weight="bold" font-size="34.0" fill="#000000" transform="matrix(1.00, 0.00, -0.00, -1.00, 413.9, 356.8)">i</text><text xml:space="preserve" font-family="OpenSans-Bold,Open Sans" font-weight="bold" font-size="34.0" fill="#000000" transform="matrix(1.00, 0.00, -0.00, -1.00, 424.2, 356.8)">c</text><text xml:space="preserve" font-family="OpenSans-Bold,Open Sans" font-weight="bold" font-size="34.0" fill="#000000" transform="matrix(1.00, 0.00, -0.00, -1.00, 441.7, 356.8)">)</text><text xml:space="preserve" font-family="OpenSans-Bold,Open Sans" font-weight="bold" font-size="34.0" fill="#000000" transform="matrix(1.00, 0.00, -0.00, -1.00, 453.3, 356.8)"> </text><text xml:space="preserve" font-family="OpenSans-Bold,Open Sans" font-weight="bold" font-size="34.0" fill="#000000" transform="matrix(1.00, 0.00, -0.00, -1.00, 175.5, 296.0)">•</text><text xml:space="preserve" font-family="OpenSans-Bold,Open Sans" font-weight="bold" font-size="34.0" fill="#000000" transform="matrix(1.00, 0.00, -0.00, -1.00, 188.3, 296.0)"> </text><text xml:space="preserve" font-family="OpenSans-Bold,Open Sans" font-weight="bold" font-size="34.0" fill="#000000" transform="matrix(1.00, 0.00, -0.00, -1.00, 197.1, 296.0)">&lt;</text><text xml:space="preserve" font-family="OpenSans-Bold,Open Sans" font-weight="bold" font-size="34.0" fill="#000000" transform="matrix(1.00, 0.00, -0.00, -1.00, 216.5, 296.0)">3</text><text xml:space="preserve" font-family="OpenSans-Bold,Open Sans" font-weight="bold" font-size="34.0" fill="#000000" transform="matrix(1.00, 0.00, -0.00, -1.00, 235.9, 296.0)"> </text><text xml:space="preserve" font-family="OpenSans-Bold,Open Sans" font-weight="bold" font-size="34.0" fill="#000000" transform="matrix(1.00, 0.00, -0.00, -1.00, 244.7, 296.0)">m</text><text xml:space="preserve" font-family="OpenSans-Bold,Open Sans" font-weight="bold" font-size="34.0" fill="#000000" transform="matrix(1.00, 0.00, -0.00, -1.00, 278.1, 296.0)">a</text><text xml:space="preserve" font-family="OpenSans-Bold,Open Sans" font-weight="bold" font-size="34.0" fill="#000000" transform="matrix(1.00, 0.00, -0.00, -1.00, 298.7, 296.0)">t</text><text xml:space="preserve" font-family="OpenSans-Bold,Open Sans" font-weight="bold" font-size="34.0" fill="#000000" transform="matrix(1.00, 0.00, -0.00, -1.00, 313.4, 296.0)">h</text><text xml:space="preserve" font-family="OpenSans-Bold,Open Sans" font-weight="bold" font-size="34.0" fill="#000000" transform="matrix(1.00, 0.00, -0.00, -1.00, 335.8, 296.0)"> </text><text xml:space="preserve" font-family="OpenSans-Bold,Open Sans" font-weight="bold" font-size="34.0" fill="#000000" transform="matrix(1.00, 0.00, -0.00, -1.00, 344.6, 296.0)">&amp;</text><text xml:space="preserve" font-family="OpenSans-Bold,Open Sans" font-weight="bold" font-size="34.0" fill="#000000" transform="matrix(1.00, 0.00, -0.00, -1.00, 370.1, 296.0)"> </text><text xml:space="preserve" font-family="OpenSans-Bold,Open Sans" font-weight="bold" font-size="34.0" fill="#000000" transform="matrix(1.00, 0.00, -0.00, -1.00, 378.9, 296.0)">s</text><text xml:space="preserve" font-family="OpenSans-Bold,Open Sans" font-weight="bold" font-size="34.0" fill="#000000" transform="matrix(1.00, 0.00, -0.00, -1.00, 395.8, 296.0)">o</text><text xml:space="preserve" font-family="OpenSans-Bold,Open Sans" font-weight="bold" font-size="34.0" fill="#000000" transform="matrix(1.00, 0.00, -0.00, -1.00, 416.9, 296.0)">l</text><text xml:space="preserve" font-family="OpenSans-Bold,Open Sans" font-weight="bold" font-size="34.0" fill="#000000" transform="matrix(1.00, 0.00, -0.00, -1.00, 427.3, 296.0)">v</text><text xml:space="preserve" font-family="OpenSans-Bold,Open Sans" font-weight="bold" font-size="34.0" fill="#000000" transform="matrix(1.00, 0.00, -0.00, -1.00, 446.6, 296.0)">i</text><text xml:space="preserve" font-family="OpenSans-Bold,Open Sans" font-weight="bold" font-size="34.0" fill="#000000" transform="matrix(1.00, 0.00, -0.00, -1.00, 457.0, 296.0)">n</text><text xml:space="preserve" font-family="OpenSans-Bold,Open Sans" font-weight="bold" font-size="34.0" fill="#000000" transform="matrix(1.00, 0.00, -0.00, -1.00, 479.3, 296.0)">g</text><text xml:space="preserve" font-family="OpenSans-Bold,Open Sans" font-weight="bold" font-size="34.0" fill="#000000" transform="matrix(1.00, 0.00, -0.00, -1.00, 498.5, 296.0)"> </text><text xml:space="preserve" font-family="OpenSans-Bold,Open Sans" font-weight="bold" font-size="34.0" fill="#000000" transform="matrix(1.00, 0.00, -0.00, -1.00, 507.4, 296.0)">p</text><text xml:space="preserve" font-family="OpenSans-Bold,Open Sans" font-weight="bold" font-size="34.0" fill="#000000" transform="matrix(1.00, 0.00, -0.00, -1.00, 528.9, 296.0)">u</text><text xml:space="preserve" font-family="OpenSans-Bold,Open Sans" font-weight="bold" font-size="34.0" fill="#000000" transform="matrix(1.00, 0.00, -0.00, -1.00, 551.2, 296.0)">z</text><text xml:space="preserve" font-family="OpenSans-Bold,Open Sans" font-weight="bold" font-size="34.0" fill="#000000" transform="matrix(1.00, 0.00, -0.00, -1.00, 567.8, 296.0)">z</text><text xml:space="preserve" font-family="OpenSans-Bold,Open Sans" font-weight="bold" font-size="34.0" fill="#000000" transform="matrix(1.00, 0.00, -0.00, -1.00, 584.4, 296.0)">l</text><text xml:space="preserve" font-family="OpenSans-Bold,Open Sans" font-weight="bold" font-size="34.0" fill="#000000" transform="matrix(1.00, 0.00, -0.00, -1.00, 594.8, 296.0)">e</text><text xml:space="preserve" font-family="OpenSans-Bold,Open Sans" font-weight="bold" font-size="34.0" fill="#000000" transform="matrix(1.00, 0.00, -0.00, -1.00, 614.8, 296.0)">s</text><text xml:space="preserve" font-family="OpenSans-Italic,Open Sans" font-style="italic" font-size="7.0" fill="#929396" transform="matrix(1.00, 0.00, -0.00, -1.00, 866.7, 115.3)">9</text></g></svg>